<?xml version="1.0" encoding="UTF-8" standalone="no"?>
<!-- Created with Inkscape (http://www.inkscape.org/) -->

<svg
   xmlns:dc="http://purl.org/dc/elements/1.1/"
   xmlns:cc="http://creativecommons.org/ns#"
   xmlns:rdf="http://www.w3.org/1999/02/22-rdf-syntax-ns#"
   xmlns:svg="http://www.w3.org/2000/svg"
   xmlns="http://www.w3.org/2000/svg"
   xmlns:sodipodi="http://sodipodi.sourceforge.net/DTD/sodipodi-0.dtd"
   xmlns:inkscape="http://www.inkscape.org/namespaces/inkscape"
   width="512"
   height="512"
   viewBox="0 0 511.99998 512.00002"
   version="1.1"
   id="svg3765"
   sodipodi:docname="casual_quora.svg"
   inkscape:version="0.92.4 (5da689c313, 2019-01-14)"
   inkscape:export-filename="C:\Users\carpennp\Desktop\casual_quora_1024.png"
   inkscape:export-xdpi="192"
   inkscape:export-ydpi="192">
  <defs
     id="defs3759" />
  <sodipodi:namedview
     id="base"
     pagecolor="#ffffff"
     bordercolor="#666666"
     borderopacity="1.0"
     inkscape:pageopacity="0.0"
     inkscape:pageshadow="2"
     inkscape:zoom="1"
     inkscape:cx="358.24865"
     inkscape:cy="354.44357"
     inkscape:document-units="px"
     inkscape:current-layer="flowRoot3771"
     showgrid="false"
     units="px"
     showguides="true"
     inkscape:guide-bbox="true"
     objecttolerance="20"
     inkscape:snap-text-baseline="true"
     inkscape:snap-global="false"
     inkscape:window-width="1920"
     inkscape:window-height="1057"
     inkscape:window-x="-8"
     inkscape:window-y="-8"
     inkscape:window-maximized="1">
    <sodipodi:guide
       position="44.732143,255.9933"
       orientation="0,1"
       id="guide3769"
       inkscape:locked="false" />
  </sodipodi:namedview>
  <metadata
     id="metadata3762">
    <rdf:RDF>
      <cc:Work
         rdf:about="">
        <dc:format>image/svg+xml</dc:format>
        <dc:type
           rdf:resource="http://purl.org/dc/dcmitype/StillImage" />
        <dc:title></dc:title>
      </cc:Work>
    </rdf:RDF>
  </metadata>
  <g
     inkscape:label="Layer 1"
     inkscape:groupmode="layer"
     id="layer1"
     transform="translate(0,-610.51962)">
    <g
       aria-label="Q"
       transform="matrix(2.5062776,0,0,2.5062776,-236.30977,297.31124)"
       style="font-style:normal;font-weight:normal;font-size:40px;line-height:1.25;font-family:sans-serif;letter-spacing:0px;word-spacing:0px;fill:#000000;fill-opacity:1;stroke:none"
       id="flowRoot3771">
      <path
         d="m 160.9375,285.31984 c -11.02703,-6.41632 -18.10022,-15.12721 -23.4375,-25.3125 -5.82421,-11.11452 -8.16131,-24.20193 -8.15625,-36.75 0.005,-12.64637 2.38597,-25.82662 8.25,-37.03125 5.34264,-10.20838 13.5427,-19.50304 23.4375,-25.40625 10.08241,-6.01514 22.38472,-8.77116 34.125,-8.71875 11.83225,0.0528 24.18487,2.97525 34.3125,9.09375 9.80601,5.92419 17.59461,15.23575 23.25,25.3125 5.65539,10.07674 8.54185,22.00087 9.65849,33.60118 1.23934,12.87499 0.16091,26.2214 -3.40917,38.65345 -1.68401,5.86422 -4.59514,11.92752 -8.31094,16.30806 -2.54915,2.85954 -5.60117,7.68541 -1.95609,11.14673 2.44809,2.66332 9.13044,1.95881 11.92368,5.29136 1.43841,1.71614 3.23578,4.60483 1.61008,6.52189 -3.35423,3.95539 -16.91086,0.93546 -22.44546,-2.29949 -6.09887,-3.51708 -7.73132,-3.80721 -11.92178,-4.06068 -3.65269,-0.22094 -5.68169,1.06124 -10.74269,2.26118 -5.59235,1.21297 -9.51659,1.6446 -19.7537,1.0461 -15.38035,-1.10864 -25.4433,-3.97923 -36.43367,-9.65728 z m 71.97832,-16.16687 c 14.26786,-6.57922 14.02302,-29.2662 14.09699,-44.97774 0.0518,-10.999 -3.94194,-22.1295 -9.57181,-31.57859 -4.29787,-7.21349 -10.49177,-13.63268 -17.72229,-17.90183 -7.30023,-4.31031 -16.0053,-7.42956 -24.46875,-6.9375 -12.15499,0.70668 -25.23541,5.26559 -33.75,13.96875 -10.68536,10.922 -16.74466,27.44931 -16.59823,42.72824 0.13798,14.39863 7.59823,30.39676 16.41073,39.95926 8.875,9.5625 19.62323,13.77948 33.37323,13.77948 6.5,0 11.60435,0.36293 20.18034,-2.64249 -3.84283,-4.00292 -3.18312,-3.18786 -4.70512,-4.84742 -1.10972,-1.21001 -2.26989,-2.38744 -3.22507,-3.72282 -1.3725,-1.91882 -2.61874,-3.95292 -3.56532,-6.11385 -0.93616,-2.13713 -1.99352,-4.35906 -2.05374,-6.69146 -0.0564,-2.18527 -0.20697,-5.12728 1.5981,-6.36029 3.45907,-2.36282 11.16135,-2.72625 12.4674,1.58017 0.50589,1.66807 0.49458,3.26464 1.048,4.80915 1.28055,3.57388 2.41651,7.54775 5.19403,10.13576 2.99345,2.78921 7.57595,6.52649 11.29146,4.81318 z"
         style="font-style:normal;font-variant:normal;font-weight:normal;font-stretch:normal;font-size:192px;font-family:Arial;-inkscape-font-specification:'Arial, Normal';font-variant-ligatures:normal;font-variant-caps:normal;font-variant-numeric:normal;font-feature-settings:normal;text-align:start;writing-mode:lr-tb;text-anchor:start"
         id="path3791"
         inkscape:connector-curvature="0"
         sodipodi:nodetypes="caaaaaazaaccascaccccaascaaaaaaaasaacccc" />
      <path
         style="fill:#036f32;fill-opacity:1;stroke-width:1.41421354"
         d="m 393.71123,436.82509 c -9.52978,-1.59126 -20.39202,-5.48472 -33.35925,-11.95729 -13.06739,-6.52256 -15.14892,-7.13509 -24.74874,-7.28265 -7.16176,-0.11016 -13.40739,0.78153 -19.72002,2.81519 -15.73079,5.06781 -33.26425,6.5489 -56.81451,4.79928 -35.34578,-2.62594 -61.43842,-9.04011 -85.26769,-20.96075 -14.36617,-7.18671 -25.44004,-15.49526 -37.49545,-28.13225 -24.30952,-25.48227 -39.228087,-56.98381 -45.459517,-95.9908 -2.646814,-16.56831 -2.201677,-54.9098 0.837355,-72.12489 6.895,-39.05784 21.992422,-68.85675 48.050882,-94.84162 15.0132,-14.97081 28.80635,-24.465282 45.32692,-31.200649 46.52371,-18.967527 100.28768,-17.310219 143.59619,4.426445 15.55969,7.809448 26.9109,16.434464 40.14845,30.506064 31.04572,33.00179 47.44094,72.95685 52.03896,126.81865 2.80543,32.86334 -1.46687,69.99885 -11.35271,98.67965 -4.55661,13.21963 -8.14945,19.78486 -18.43804,33.69208 -10.69871,14.46159 -11.30297,23.7552 -1.95419,30.05535 2.49903,1.68409 6.9454,3.49502 9.88083,4.02428 9.8933,1.78378 16.77182,6.07228 20.24717,12.62339 1.85406,3.49492 2.84374,7.13101 2.31557,8.50738 -1.95271,5.08873 -14.99613,7.68648 -27.83221,5.54314 z m -98.68808,-56.26614 8.08504,-2.52286 -10.59227,-11.48348 c -14.56632,-15.79188 -23.25549,-32.78027 -23.25549,-45.46734 0,-12.63761 4.20307,-16.22071 19.02729,-16.22071 10.149,0 12.86152,2.51277 16.32719,15.12484 4.56521,16.61347 8.77174,24.61053 16.69038,31.73006 13.30976,11.96661 21.08724,13.72539 31.49823,7.12294 8.41406,-5.33604 13.5326,-11.64131 19.13566,-23.57225 6.16098,-13.11896 8.72938,-26.29879 10.6103,-54.44723 2.39205,-35.79788 0.35696,-55.90318 -8.01861,-79.21797 -14.29257,-39.78575 -37.87837,-67.30603 -71.4306,-83.34635 -29.23429,-13.97604 -58.19975,-14.97142 -91.57999,-3.14711 -39.69621,14.06163 -67.7186,47.05161 -80.49198,94.76099 -3.20663,11.97698 -3.66502,16.48414 -3.69205,36.30221 -0.0342,25.09348 1.65829,33.87501 10.89605,56.53346 8.39885,20.60079 17.31112,34.09855 32.74029,49.58569 17.65616,17.72247 29.53266,24.39842 53.03301,29.81058 12.05802,2.77696 60.54705,1.72176 71.01755,-1.54547 z"
         id="path4646"
         inkscape:connector-curvature="0"
         transform="matrix(0.3989981,0,0,0.3989981,94.287149,124.96955)" />
    </g>
  </g>
</svg>
